<?xml version="1.0" standalone="no"?>
<!DOCTYPE svg PUBLIC "-//W3C//DTD SVG 20010904//EN"
 "http://www.w3.org/TR/2001/REC-SVG-20010904/DTD/svg10.dtd">
<svg version="1.0" xmlns="http://www.w3.org/2000/svg"
 width="192.000000pt" height="192.000000pt" viewBox="0 0 192.000000 192.000000"
 preserveAspectRatio="xMidYMid meet">

<g transform="translate(0.000000,192.000000) scale(0.100000,-0.100000)"
fill="#000000" stroke="none">
<path d="M902 1751 c-19 -5 -50 -22 -70 -38 -113 -89 -107 -260 12 -340 43
-29 56 -33 116 -33 60 0 73 4 116 33 163 110 103 361 -91 381 -28 3 -65 1 -83
-3z"/>
<path d="M205 1104 c-119 -62 -130 -198 -22 -278 28 -21 33 -21 777 -21 744 0
749 0 777 21 98 73 98 195 0 268 -28 21 -35 21 -765 24 -654 2 -740 0 -767
-14z"/>
<path d="M844 548 c-122 -83 -126 -255 -7 -344 137 -104 332 -3 333 172 0 70
-33 130 -94 172 -43 28 -56 32 -116 32 -60 0 -73 -4 -116 -32z"/>
</g>
</svg>
